<svg width="200" height="34" viewBox="0 0 200 34" fill="none" xmlns="http://www.w3.org/2000/svg">
<path d="M35.3398 28.0875C34.5828 27.3473 33.9406 26.5214 33.4304 25.6317C32.6243 24.237 31.5101 22.9989 30.1536 21.9903C28.797 20.9817 27.2254 20.2229 25.5315 19.7587C24.0503 19.3545 22.5003 19.1829 20.9518 19.2517C22.0788 19.1949 23.1886 19.5161 24.0586 20.1511C24.9286 20.786 25.4947 21.6876 25.6434 22.6754C26.0509 24.8098 27.1225 26.8021 28.7386 28.4298C30.3547 30.0576 32.4518 31.2566 34.7953 31.8931C37.4752 32.6201 40.3468 32.5809 43 31.7812C40.0447 31.3557 37.3424 30.0527 35.3398 28.0875Z" fill="white"/>
<path d="M16.2154 19.3834C16.5598 20.7189 17.1656 21.9912 18.0055 23.1429C17.3922 22.3066 17.1561 21.2978 17.3439 20.3155C17.5317 19.3331 18.1297 18.4485 19.0199 17.8362C20.9106 16.4556 22.3301 14.6389 23.1203 12.5883C23.9104 10.5377 24.0402 8.33375 23.4952 6.22192C22.8731 3.80604 21.3973 1.62725 19.281 0C20.3346 2.4862 20.3952 5.21549 19.4525 7.73625C19.0917 8.68791 18.5901 9.59335 17.9608 10.4291C16.9946 11.7421 16.3363 13.2127 16.025 14.7541C15.7137 16.2955 15.7556 17.8763 16.1483 19.4032L16.2154 19.3834Z" fill="white"/>
<path d="M23.3386 23.4129C22.8311 24.3034 21.9611 24.9918 20.9028 25.3397C19.8446 25.6878 18.6764 25.6697 17.6326 25.2893C15.3322 24.5283 12.8374 24.347 10.427 24.7656C8.01656 25.1841 5.78548 26.1861 3.98307 27.6596C1.92795 29.3472 0.533154 31.5674 0 34C1.91236 31.9509 4.55926 30.5388 7.50354 29.9969C8.60968 29.7971 9.73969 29.7196 10.8675 29.7665C12.6365 29.8474 14.4058 29.6146 16.0712 29.0821C17.7366 28.5494 19.2642 27.7277 20.5639 26.6654C21.7013 25.7329 22.6454 24.6322 23.3535 23.4129H23.3386Z" fill="white"/>
<path d="M44.4664 13.8461C44.3859 13.5478 44.2675 13.285 44.1113 13.0577C43.955 12.8257 43.7633 12.6292 43.536 12.4682C43.3087 12.3072 43.0483 12.1865 42.7548 12.106C42.4612 12.0208 42.1392 11.9782 41.7888 11.9782C41.0834 11.9782 40.4726 12.1486 39.9565 12.4895C39.4451 12.8304 39.0497 13.3276 38.7704 13.981C38.491 14.6297 38.3513 15.418 38.3513 16.3461C38.3513 17.2788 38.4863 18.0743 38.7562 18.7324C39.0261 19.3906 39.4167 19.8925 39.9281 20.2381C40.4394 20.5838 41.0597 20.7566 41.7888 20.7566C42.4328 20.7566 42.9773 20.6524 43.4224 20.4441C43.8722 20.231 44.2131 19.9304 44.4451 19.5421C44.6771 19.1538 44.7931 18.6969 44.7931 18.1714L45.4465 18.2495H41.9096V15.6856H48.1809V17.6103C48.1809 18.9124 47.9039 20.0274 47.3499 20.9554C46.8007 21.8835 46.0431 22.5961 45.0772 23.0932C44.116 23.5904 43.0104 23.839 41.7604 23.839C40.3731 23.839 39.1539 23.5383 38.1028 22.937C37.0516 22.3357 36.2325 21.4786 35.6454 20.366C35.0583 19.2485 34.7647 17.9228 34.7647 16.3887C34.7647 15.1955 34.9423 14.1373 35.2974 13.214C35.6525 12.2859 36.1473 11.5 36.7817 10.856C37.421 10.2121 38.1596 9.72439 38.9977 9.39295C39.8405 9.06151 40.7472 8.89579 41.7178 8.89579C42.5606 8.89579 43.3442 9.01653 44.0687 9.258C44.7978 9.49948 45.4418 9.84039 46.0005 10.2807C46.5639 10.7211 47.0209 11.2443 47.3712 11.8503C47.7216 12.4564 47.9394 13.1216 48.0246 13.8461H44.4664ZM50.253 23.6401V12.731H53.6266V14.7197H53.7402C53.9391 14 54.2634 13.4649 54.7132 13.1145C55.163 12.7594 55.6862 12.5819 56.2828 12.5819C56.4438 12.5819 56.6095 12.5937 56.78 12.6174C56.9504 12.6363 57.109 12.6671 57.2558 12.7097V15.7282C57.0901 15.6714 56.8723 15.6264 56.6024 15.5932C56.3373 15.5601 56.1005 15.5435 55.8922 15.5435C55.4803 15.5435 55.1086 15.6358 54.7771 15.8205C54.4504 16.0004 54.1924 16.2537 54.003 16.5804C53.8183 16.9024 53.726 17.2812 53.726 17.7168V23.6401H50.253ZM63.204 23.8461C62.0629 23.8461 61.078 23.6212 60.2494 23.1714C59.4256 22.7168 58.7911 22.0705 58.346 21.2324C57.9057 20.3896 57.6855 19.3882 57.6855 18.2282C57.6855 17.1013 57.908 16.1164 58.3531 15.2736C58.7982 14.4261 59.4256 13.7679 60.2352 13.2992C61.0449 12.8257 61.999 12.589 63.0974 12.589C63.874 12.589 64.5842 12.7097 65.2281 12.9512C65.8721 13.1927 66.4284 13.5501 66.8972 14.0236C67.3659 14.4971 67.7305 15.0819 67.9909 15.7779C68.2513 16.4692 68.3815 17.2623 68.3815 18.1572V19.0236H58.9V17.0066H65.15C65.1453 16.6373 65.0577 16.3082 64.8872 16.0194C64.7168 15.7305 64.4824 15.5056 64.1841 15.3447C63.8905 15.1789 63.552 15.0961 63.1685 15.0961C62.7802 15.0961 62.4322 15.1837 62.1244 15.3589C61.8167 15.5293 61.5728 15.7637 61.3929 16.062C61.213 16.3555 61.1183 16.6893 61.1088 17.0634V19.116C61.1088 19.561 61.1964 19.9517 61.3716 20.2878C61.5468 20.6193 61.7954 20.8773 62.1173 21.062C62.4393 21.2466 62.8228 21.339 63.2679 21.339C63.5757 21.339 63.855 21.2964 64.106 21.2111C64.3569 21.1259 64.5723 21.0004 64.7523 20.8347C64.9322 20.669 65.0671 20.4654 65.1571 20.2239L68.346 20.3162C68.2134 21.0312 67.9223 21.6538 67.4724 22.1841C67.0274 22.7097 66.4426 23.1193 65.7182 23.4128C64.9937 23.7017 64.1557 23.8461 63.204 23.8461ZM75.2548 23.8461C74.1137 23.8461 73.1288 23.6212 72.3002 23.1714C71.4763 22.7168 70.8419 22.0705 70.3968 21.2324C69.9565 20.3896 69.7363 19.3882 69.7363 18.2282C69.7363 17.1013 69.9588 16.1164 70.4039 15.2736C70.849 14.4261 71.4763 13.7679 72.286 13.2992C73.0957 12.8257 74.0497 12.589 75.1482 12.589C75.9247 12.589 76.635 12.7097 77.2789 12.9512C77.9228 13.1927 78.4792 13.5501 78.9479 14.0236C79.4167 14.4971 79.7813 15.0819 80.0417 15.7779C80.3021 16.4692 80.4323 17.2623 80.4323 18.1572V19.0236H70.9508V17.0066H77.2008C77.196 16.6373 77.1085 16.3082 76.938 16.0194C76.7675 15.7305 76.5332 15.5056 76.2349 15.3447C75.9413 15.1789 75.6028 15.0961 75.2192 15.0961C74.831 15.0961 74.483 15.1837 74.1752 15.3589C73.8674 15.5293 73.6236 15.7637 73.4437 16.062C73.2638 16.3555 73.1691 16.6893 73.1596 17.0634V19.116C73.1596 19.561 73.2472 19.9517 73.4224 20.2878C73.5976 20.6193 73.8461 20.8773 74.1681 21.062C74.4901 21.2466 74.8736 21.339 75.3187 21.339C75.6264 21.339 75.9058 21.2964 76.1567 21.2111C76.4077 21.1259 76.6231 21.0004 76.8031 20.8347C76.983 20.669 77.1179 20.4654 77.2079 20.2239L80.3968 20.3162C80.2642 21.0312 79.973 21.6538 79.5232 22.1841C79.0781 22.7097 78.4934 23.1193 77.769 23.4128C77.0445 23.7017 76.2065 23.8461 75.2548 23.8461ZM85.6791 17.4185V23.6401H82.2061V12.731H85.5087V14.7339H85.6294C85.8709 14.0662 86.2828 13.543 86.8652 13.1643C87.4476 12.7807 88.1412 12.589 88.9462 12.589C89.7132 12.589 90.3785 12.7618 90.9419 13.1074C91.5101 13.4483 91.9504 13.9266 92.2629 14.5421C92.5802 15.1529 92.7364 15.8679 92.7317 16.687V23.6401H89.2587V17.3688C89.2634 16.7627 89.1095 16.2893 88.797 15.9483C88.4893 15.6074 88.0607 15.437 87.5115 15.437C87.1469 15.437 86.825 15.5175 86.5456 15.6785C86.271 15.8347 86.0579 16.0596 85.9064 16.3532C85.7596 16.6467 85.6839 17.0018 85.6791 17.4185ZM102.744 13.4554C102.697 12.9346 102.486 12.5298 102.112 12.241C101.743 11.9474 101.215 11.8006 100.528 11.8006C100.074 11.8006 99.6949 11.8598 99.3918 11.9782C99.0888 12.0965 98.8615 12.2599 98.71 12.4682C98.5585 12.6718 98.4804 12.9062 98.4756 13.1714C98.4662 13.3892 98.5088 13.5809 98.6035 13.7466C98.7029 13.9124 98.845 14.0591 99.0296 14.187C99.219 14.3101 99.4463 14.419 99.7114 14.5137C99.9766 14.6084 100.275 14.6912 100.606 14.7623L101.856 15.0464C102.576 15.2026 103.21 15.4109 103.76 15.6714C104.314 15.9318 104.778 16.2419 105.152 16.6018C105.531 16.9616 105.817 17.3759 106.011 17.8447C106.205 18.3134 106.305 18.839 106.309 19.4214C106.305 20.3399 106.073 21.1283 105.613 21.7864C105.154 22.4446 104.494 22.9488 103.632 23.2992C102.775 23.6496 101.74 23.8248 100.528 23.8248C99.3113 23.8248 98.2507 23.6425 97.3464 23.2779C96.442 22.9133 95.7389 22.3593 95.237 21.616C94.7351 20.8726 94.4771 19.9327 94.4629 18.7964H97.8293C97.8577 19.2651 97.9832 19.6557 98.2058 19.9682C98.4283 20.2807 98.7337 20.5175 99.1219 20.6785C99.5149 20.8394 99.9695 20.9199 100.486 20.9199C100.959 20.9199 101.362 20.856 101.693 20.7282C102.029 20.6003 102.287 20.4228 102.467 20.1955C102.647 19.9682 102.739 19.7078 102.744 19.4143C102.739 19.1396 102.654 18.9053 102.488 18.7111C102.323 18.5123 102.067 18.3418 101.721 18.1998C101.38 18.053 100.945 17.918 100.415 17.7949L98.8947 17.4398C97.6352 17.151 96.6433 16.6846 95.9188 16.0407C95.1944 15.392 94.8345 14.5161 94.8393 13.4128C94.8345 12.5132 95.076 11.7249 95.5637 11.0478C96.0514 10.3707 96.7261 9.84276 97.5879 9.46397C98.4496 9.08518 99.4321 8.89579 100.535 8.89579C101.662 8.89579 102.64 9.08755 103.469 9.47107C104.302 9.84986 104.948 10.3825 105.407 11.0691C105.867 11.7556 106.101 12.5511 106.111 13.4554H102.744ZM108.085 27.731V12.731H111.523V14.5989H111.629C111.771 14.2675 111.972 13.9479 112.233 13.6401C112.498 13.3323 112.834 13.0814 113.241 12.8873C113.653 12.6884 114.146 12.589 114.719 12.589C115.476 12.589 116.184 12.7878 116.842 13.1856C117.505 13.5833 118.04 14.1965 118.447 15.025C118.854 15.8536 119.058 16.9095 119.058 18.1927C119.058 19.4285 118.862 20.463 118.469 21.2964C118.08 22.1297 117.555 22.7547 116.892 23.1714C116.234 23.588 115.502 23.7964 114.697 23.7964C114.148 23.7964 113.672 23.7064 113.27 23.5265C112.867 23.3465 112.529 23.1098 112.254 22.8162C111.984 22.5227 111.776 22.2078 111.629 21.8716H111.558V27.731H108.085ZM111.487 18.1856C111.487 18.7727 111.565 19.284 111.721 19.7197C111.882 20.1553 112.112 20.4938 112.41 20.7353C112.713 20.972 113.076 21.0904 113.497 21.0904C113.923 21.0904 114.285 20.972 114.584 20.7353C114.882 20.4938 115.107 20.1553 115.258 19.7197C115.415 19.284 115.493 18.7727 115.493 18.1856C115.493 17.5984 115.415 17.0894 115.258 16.6586C115.107 16.2277 114.882 15.8939 114.584 15.6572C114.29 15.4204 113.928 15.302 113.497 15.302C113.071 15.302 112.709 15.418 112.41 15.65C112.112 15.8821 111.882 16.2135 111.721 16.6444C111.565 17.0752 111.487 17.589 111.487 18.1856ZM123.953 23.8248C123.257 23.8248 122.639 23.7088 122.1 23.4768C121.565 23.24 121.141 22.8849 120.828 22.4114C120.521 21.9332 120.367 21.3342 120.367 20.6145C120.367 20.0085 120.473 19.4971 120.686 19.0804C120.899 18.6638 121.193 18.3252 121.567 18.0648C121.941 17.8044 122.372 17.6079 122.86 17.4753C123.347 17.338 123.868 17.2457 124.422 17.1983C125.042 17.1415 125.542 17.0823 125.921 17.0208C126.299 16.9545 126.574 16.8622 126.744 16.7438C126.92 16.6207 127.007 16.4479 127.007 16.2253V16.1898C127.007 15.8252 126.882 15.5435 126.631 15.3447C126.38 15.1458 126.041 15.0464 125.615 15.0464C125.156 15.0464 124.787 15.1458 124.507 15.3447C124.228 15.5435 124.05 15.8181 123.975 16.1685L120.771 16.0549C120.866 15.392 121.11 14.8001 121.503 14.2793C121.901 13.7537 122.445 13.3418 123.137 13.0435C123.833 12.7405 124.668 12.589 125.644 12.589C126.34 12.589 126.981 12.6718 127.568 12.8375C128.155 12.9985 128.667 13.2353 129.102 13.5478C129.538 13.8555 129.874 14.2343 130.111 14.6841C130.352 15.134 130.473 15.6477 130.473 16.2253V23.6401H127.206V22.1202H127.121C126.927 22.4895 126.678 22.802 126.375 23.0577C126.077 23.3134 125.724 23.5052 125.317 23.633C124.914 23.7608 124.46 23.8248 123.953 23.8248ZM125.026 21.552C125.4 21.552 125.736 21.4763 126.034 21.3248C126.337 21.1733 126.579 20.9649 126.759 20.6998C126.939 20.4299 127.029 20.1174 127.029 19.7623V18.7253C126.929 18.7774 126.808 18.8248 126.666 18.8674C126.529 18.91 126.378 18.9502 126.212 18.9881C126.046 19.026 125.876 19.0591 125.7 19.0875C125.525 19.116 125.357 19.142 125.196 19.1657C124.869 19.2178 124.59 19.2983 124.358 19.4072C124.131 19.5161 123.956 19.6581 123.833 19.8333C123.714 20.0037 123.655 20.2073 123.655 20.4441C123.655 20.8039 123.783 21.0786 124.038 21.2679C124.299 21.4573 124.628 21.552 125.026 21.552ZM137.689 23.8461C136.538 23.8461 135.551 23.6093 134.727 23.1358C133.908 22.6624 133.279 22.0042 132.838 21.1614C132.398 20.3139 132.178 19.3338 132.178 18.2211C132.178 17.1036 132.398 16.1235 132.838 15.2807C133.283 14.4332 133.915 13.7727 134.735 13.2992C135.558 12.8257 136.541 12.589 137.682 12.589C138.69 12.589 139.569 12.7713 140.317 13.1358C141.07 13.5004 141.657 14.0165 142.078 14.6841C142.504 15.347 142.729 16.1259 142.753 17.0208H139.507C139.441 16.4621 139.252 16.0241 138.939 15.7069C138.631 15.3896 138.229 15.231 137.732 15.231C137.329 15.231 136.976 15.3447 136.673 15.5719C136.37 15.7945 136.134 16.1259 135.963 16.5662C135.797 17.0018 135.715 17.5416 135.715 18.1856C135.715 18.8295 135.797 19.374 135.963 19.8191C136.134 20.2594 136.37 20.5932 136.673 20.8205C136.976 21.043 137.329 21.1543 137.732 21.1543C138.054 21.1543 138.338 21.0857 138.584 20.9483C138.835 20.811 139.041 20.6098 139.202 20.3447C139.363 20.0748 139.465 19.7481 139.507 19.3645H142.753C142.72 20.2642 142.495 21.0501 142.078 21.7225C141.666 22.3948 141.086 22.918 140.338 23.2921C139.595 23.6614 138.712 23.8461 137.689 23.8461ZM149.63 23.8461C148.489 23.8461 147.504 23.6212 146.675 23.1714C145.851 22.7168 145.217 22.0705 144.772 21.2324C144.331 20.3896 144.111 19.3882 144.111 18.2282C144.111 17.1013 144.334 16.1164 144.779 15.2736C145.224 14.4261 145.851 13.7679 146.661 13.2992C147.471 12.8257 148.425 12.589 149.523 12.589C150.3 12.589 151.01 12.7097 151.654 12.9512C152.298 13.1927 152.854 13.5501 153.323 14.0236C153.792 14.4971 154.156 15.0819 154.417 15.7779C154.677 16.4692 154.807 17.2623 154.807 18.1572V19.0236H145.326V17.0066H151.576C151.571 16.6373 151.483 16.3082 151.313 16.0194C151.143 15.7305 150.908 15.5056 150.61 15.3447C150.316 15.1789 149.978 15.0961 149.594 15.0961C149.206 15.0961 148.858 15.1837 148.55 15.3589C148.242 15.5293 147.999 15.7637 147.819 16.062C147.639 16.3555 147.544 16.6893 147.535 17.0634V19.116C147.535 19.561 147.622 19.9517 147.797 20.2878C147.973 20.6193 148.221 20.8773 148.543 21.062C148.865 21.2466 149.249 21.339 149.694 21.339C150.001 21.339 150.281 21.2964 150.532 21.2111C150.783 21.1259 150.998 21.0004 151.178 20.8347C151.358 20.669 151.493 20.4654 151.583 20.2239L154.772 20.3162C154.639 21.0312 154.348 21.6538 153.898 22.1841C153.453 22.7097 152.868 23.1193 152.144 23.4128C151.42 23.7017 150.581 23.8461 149.63 23.8461ZM161.958 23.6401H156.581V9.09465H161.95C163.432 9.09465 164.708 9.38584 165.779 9.96823C166.853 10.5459 167.682 11.3792 168.264 12.4682C168.847 13.5525 169.138 14.8499 169.138 16.3603C169.138 17.8754 168.847 19.1775 168.264 20.2665C167.687 21.3555 166.86 22.1912 165.786 22.7736C164.711 23.3513 163.435 23.6401 161.958 23.6401ZM160.097 20.6429H161.823C162.637 20.6429 163.326 20.5056 163.889 20.231C164.458 19.9517 164.886 19.4995 165.175 18.8745C165.468 18.2447 165.615 17.4067 165.615 16.3603C165.615 15.3139 165.468 14.4805 165.175 13.8603C164.881 13.2353 164.448 12.7855 163.875 12.5108C163.307 12.2315 162.606 12.0918 161.773 12.0918H160.097V20.6429ZM173.477 23.6401H169.699L174.607 9.09465H179.287L184.195 23.6401H180.416L177 12.7594H176.887L173.477 23.6401ZM172.973 17.9157H180.871V20.5861H172.973V17.9157ZM198.806 16.3674C198.806 17.9678 198.498 19.3243 197.883 20.437C197.267 21.5497 196.434 22.3948 195.383 22.9725C194.336 23.5501 193.162 23.839 191.86 23.839C190.553 23.839 189.376 23.5478 188.33 22.9654C187.284 22.383 186.453 21.5378 185.837 20.4299C185.226 19.3172 184.921 17.963 184.921 16.3674C184.921 14.767 185.226 13.4105 185.837 12.2978C186.453 11.1851 187.284 10.3399 188.33 9.76226C189.376 9.18461 190.553 8.89579 191.86 8.89579C193.162 8.89579 194.336 9.18461 195.383 9.76226C196.434 10.3399 197.267 11.1851 197.883 12.2978C198.498 13.4105 198.806 14.767 198.806 16.3674ZM195.212 16.3674C195.212 15.4204 195.077 14.6202 194.807 13.9668C194.542 13.3134 194.159 12.8186 193.657 12.4824C193.16 12.1463 192.561 11.9782 191.86 11.9782C191.164 11.9782 190.565 12.1463 190.063 12.4824C189.561 12.8186 189.175 13.3134 188.905 13.9668C188.64 14.6202 188.508 15.4204 188.508 16.3674C188.508 17.3143 188.64 18.1145 188.905 18.7679C189.175 19.4214 189.561 19.9161 190.063 20.2523C190.565 20.5885 191.164 20.7566 191.86 20.7566C192.561 20.7566 193.16 20.5885 193.657 20.2523C194.159 19.9161 194.542 19.4214 194.807 18.7679C195.077 18.1145 195.212 17.3143 195.212 16.3674Z" fill="white"/>
</svg>
